<mxfile host="app.diagrams.net" modified="2023-04-14T15:05:29.548Z" agent="Mozilla/5.0 (Windows NT 10.0; Win64; x64) AppleWebKit/537.36 (KHTML, like Gecko) Chrome/111.0.0.0 Safari/537.36" etag="EneJpYqSMsPbee6j5lpK" version="21.1.8" type="github">
  <diagram id="6a731a19-8d31-9384-78a2-239565b7b9f0" name="Page-1">
    <mxGraphModel dx="503" dy="277" grid="1" gridSize="10" guides="1" tooltips="1" connect="1" arrows="1" fold="1" page="1" pageScale="1" pageWidth="1169" pageHeight="827" background="none" math="0" shadow="0">
      <root>
        <mxCell id="0" />
        <mxCell id="1" parent="0" />
        <mxCell id="LONATQJ_jE18MDj4y4fk-1556" style="edgeStyle=orthogonalEdgeStyle;rounded=0;orthogonalLoop=1;jettySize=auto;html=1;entryX=0.5;entryY=0;entryDx=0;entryDy=0;" edge="1" parent="1" source="LONATQJ_jE18MDj4y4fk-1543" target="LONATQJ_jE18MDj4y4fk-1552">
          <mxGeometry relative="1" as="geometry" />
        </mxCell>
        <mxCell id="LONATQJ_jE18MDj4y4fk-1543" value="AdÃ£o" style="shape=umlActor;verticalLabelPosition=bottom;verticalAlign=middle;html=1;outlineConnect=0;fillColor=#dae8fc;strokeColor=#6c8ebf;gradientColor=#7ea6e0;" vertex="1" parent="1">
          <mxGeometry x="570" y="80" width="30" height="60" as="geometry" />
        </mxCell>
        <mxCell id="LONATQJ_jE18MDj4y4fk-1558" style="edgeStyle=orthogonalEdgeStyle;rounded=0;orthogonalLoop=1;jettySize=auto;html=1;" edge="1" parent="1" source="LONATQJ_jE18MDj4y4fk-1544" target="LONATQJ_jE18MDj4y4fk-1552">
          <mxGeometry relative="1" as="geometry" />
        </mxCell>
        <mxCell id="LONATQJ_jE18MDj4y4fk-1544" value="Eva" style="shape=umlActor;verticalLabelPosition=bottom;verticalAlign=middle;html=1;outlineConnect=0;fillColor=#e6d0de;gradientColor=#d5739d;strokeColor=#996185;" vertex="1" parent="1">
          <mxGeometry x="640" y="80" width="30" height="60" as="geometry" />
        </mxCell>
        <mxCell id="LONATQJ_jE18MDj4y4fk-1564" value="" style="edgeStyle=orthogonalEdgeStyle;rounded=0;orthogonalLoop=1;jettySize=auto;html=1;" edge="1" parent="1" source="LONATQJ_jE18MDj4y4fk-1547" target="LONATQJ_jE18MDj4y4fk-1563">
          <mxGeometry relative="1" as="geometry" />
        </mxCell>
        <mxCell id="LONATQJ_jE18MDj4y4fk-1547" value="Caim" style="shape=umlActor;verticalLabelPosition=bottom;verticalAlign=top;html=1;outlineConnect=0;fillColor=#dae8fc;gradientColor=#7ea6e0;strokeColor=#6c8ebf;" vertex="1" parent="1">
          <mxGeometry x="530" y="241" width="30" height="60" as="geometry" />
        </mxCell>
        <mxCell id="LONATQJ_jE18MDj4y4fk-1548" value="Sete" style="shape=umlActor;verticalLabelPosition=bottom;verticalAlign=top;html=1;outlineConnect=0;fillColor=#dae8fc;gradientColor=#7ea6e0;strokeColor=#6c8ebf;" vertex="1" parent="1">
          <mxGeometry x="680" y="241" width="30" height="60" as="geometry" />
        </mxCell>
        <mxCell id="LONATQJ_jE18MDj4y4fk-1549" value="Abel" style="shape=umlActor;verticalLabelPosition=bottom;verticalAlign=top;html=1;outlineConnect=0;fillColor=#dae8fc;gradientColor=#7ea6e0;strokeColor=#6c8ebf;" vertex="1" parent="1">
          <mxGeometry x="605" y="241" width="30" height="60" as="geometry" />
        </mxCell>
        <mxCell id="LONATQJ_jE18MDj4y4fk-1559" style="edgeStyle=orthogonalEdgeStyle;rounded=0;orthogonalLoop=1;jettySize=auto;html=1;entryX=0.5;entryY=0;entryDx=0;entryDy=0;entryPerimeter=0;" edge="1" parent="1" source="LONATQJ_jE18MDj4y4fk-1552" target="LONATQJ_jE18MDj4y4fk-1549">
          <mxGeometry relative="1" as="geometry" />
        </mxCell>
        <mxCell id="LONATQJ_jE18MDj4y4fk-1560" style="edgeStyle=orthogonalEdgeStyle;rounded=0;orthogonalLoop=1;jettySize=auto;html=1;entryX=0.5;entryY=0;entryDx=0;entryDy=0;entryPerimeter=0;" edge="1" parent="1" source="LONATQJ_jE18MDj4y4fk-1552" target="LONATQJ_jE18MDj4y4fk-1548">
          <mxGeometry relative="1" as="geometry" />
        </mxCell>
        <mxCell id="LONATQJ_jE18MDj4y4fk-1561" style="edgeStyle=orthogonalEdgeStyle;rounded=0;orthogonalLoop=1;jettySize=auto;html=1;" edge="1" parent="1" source="LONATQJ_jE18MDj4y4fk-1552" target="LONATQJ_jE18MDj4y4fk-1547">
          <mxGeometry relative="1" as="geometry" />
        </mxCell>
        <mxCell id="LONATQJ_jE18MDj4y4fk-1552" value="" style="rhombus;whiteSpace=wrap;html=1;fillColor=#fff2cc;gradientColor=#ffd966;strokeColor=#d6b656;" vertex="1" parent="1">
          <mxGeometry x="600" y="171" width="40" height="40" as="geometry" />
        </mxCell>
        <mxCell id="LONATQJ_jE18MDj4y4fk-1566" value="" style="edgeStyle=orthogonalEdgeStyle;rounded=0;orthogonalLoop=1;jettySize=auto;html=1;" edge="1" parent="1" source="LONATQJ_jE18MDj4y4fk-1563" target="LONATQJ_jE18MDj4y4fk-1565">
          <mxGeometry relative="1" as="geometry" />
        </mxCell>
        <mxCell id="LONATQJ_jE18MDj4y4fk-1563" value="Enoque" style="shape=umlActor;verticalLabelPosition=bottom;verticalAlign=top;html=1;outlineConnect=0;fillColor=#dae8fc;gradientColor=#7ea6e0;strokeColor=#6c8ebf;" vertex="1" parent="1">
          <mxGeometry x="530" y="381" width="30" height="60" as="geometry" />
        </mxCell>
        <mxCell id="LONATQJ_jE18MDj4y4fk-1568" value="" style="edgeStyle=orthogonalEdgeStyle;rounded=0;orthogonalLoop=1;jettySize=auto;html=1;" edge="1" parent="1" source="LONATQJ_jE18MDj4y4fk-1565" target="LONATQJ_jE18MDj4y4fk-1567">
          <mxGeometry relative="1" as="geometry" />
        </mxCell>
        <mxCell id="LONATQJ_jE18MDj4y4fk-1565" value="Irade" style="shape=umlActor;verticalLabelPosition=bottom;verticalAlign=top;html=1;outlineConnect=0;fillColor=#dae8fc;gradientColor=#7ea6e0;strokeColor=#6c8ebf;" vertex="1" parent="1">
          <mxGeometry x="530" y="521" width="30" height="60" as="geometry" />
        </mxCell>
        <mxCell id="LONATQJ_jE18MDj4y4fk-1570" value="" style="edgeStyle=orthogonalEdgeStyle;rounded=0;orthogonalLoop=1;jettySize=auto;html=1;" edge="1" parent="1" source="LONATQJ_jE18MDj4y4fk-1567" target="LONATQJ_jE18MDj4y4fk-1569">
          <mxGeometry relative="1" as="geometry" />
        </mxCell>
        <mxCell id="LONATQJ_jE18MDj4y4fk-1567" value="Meujael" style="shape=umlActor;verticalLabelPosition=bottom;verticalAlign=top;html=1;outlineConnect=0;fillColor=#dae8fc;gradientColor=#7ea6e0;strokeColor=#6c8ebf;" vertex="1" parent="1">
          <mxGeometry x="530" y="661" width="30" height="60" as="geometry" />
        </mxCell>
        <mxCell id="LONATQJ_jE18MDj4y4fk-1572" value="" style="edgeStyle=orthogonalEdgeStyle;rounded=0;orthogonalLoop=1;jettySize=auto;html=1;" edge="1" parent="1" source="LONATQJ_jE18MDj4y4fk-1569" target="LONATQJ_jE18MDj4y4fk-1571">
          <mxGeometry relative="1" as="geometry" />
        </mxCell>
        <mxCell id="LONATQJ_jE18MDj4y4fk-1569" value="Matusael" style="shape=umlActor;verticalLabelPosition=bottom;verticalAlign=top;html=1;outlineConnect=0;fillColor=#dae8fc;gradientColor=#7ea6e0;strokeColor=#6c8ebf;" vertex="1" parent="1">
          <mxGeometry x="530" y="801" width="30" height="60" as="geometry" />
        </mxCell>
        <mxCell id="LONATQJ_jE18MDj4y4fk-1579" style="edgeStyle=orthogonalEdgeStyle;rounded=0;orthogonalLoop=1;jettySize=auto;html=1;entryX=0.5;entryY=0;entryDx=0;entryDy=0;" edge="1" parent="1" source="LONATQJ_jE18MDj4y4fk-1571" target="LONATQJ_jE18MDj4y4fk-1575">
          <mxGeometry relative="1" as="geometry" />
        </mxCell>
        <mxCell id="LONATQJ_jE18MDj4y4fk-1571" value="Lemeque" style="shape=umlActor;verticalLabelPosition=bottom;verticalAlign=top;html=1;outlineConnect=0;fillColor=#dae8fc;gradientColor=#7ea6e0;strokeColor=#6c8ebf;" vertex="1" parent="1">
          <mxGeometry x="530" y="941" width="30" height="60" as="geometry" />
        </mxCell>
        <mxCell id="LONATQJ_jE18MDj4y4fk-1577" style="edgeStyle=orthogonalEdgeStyle;rounded=0;orthogonalLoop=1;jettySize=auto;html=1;entryX=0.5;entryY=0;entryDx=0;entryDy=0;" edge="1" parent="1" source="LONATQJ_jE18MDj4y4fk-1573" target="LONATQJ_jE18MDj4y4fk-1575">
          <mxGeometry relative="1" as="geometry" />
        </mxCell>
        <mxCell id="LONATQJ_jE18MDj4y4fk-1573" value="Ada" style="shape=umlActor;verticalLabelPosition=bottom;verticalAlign=top;html=1;outlineConnect=0;fillColor=#dae8fc;gradientColor=#7ea6e0;strokeColor=#6c8ebf;" vertex="1" parent="1">
          <mxGeometry x="460" y="941" width="30" height="60" as="geometry" />
        </mxCell>
        <mxCell id="LONATQJ_jE18MDj4y4fk-1578" style="edgeStyle=orthogonalEdgeStyle;rounded=0;orthogonalLoop=1;jettySize=auto;html=1;" edge="1" parent="1" source="LONATQJ_jE18MDj4y4fk-1574" target="LONATQJ_jE18MDj4y4fk-1576">
          <mxGeometry relative="1" as="geometry" />
        </mxCell>
        <mxCell id="LONATQJ_jE18MDj4y4fk-1574" value="Zila" style="shape=umlActor;verticalLabelPosition=bottom;verticalAlign=top;html=1;outlineConnect=0;fillColor=#dae8fc;gradientColor=#7ea6e0;strokeColor=#6c8ebf;" vertex="1" parent="1">
          <mxGeometry x="600" y="941" width="30" height="60" as="geometry" />
        </mxCell>
        <mxCell id="LONATQJ_jE18MDj4y4fk-1575" value="" style="rhombus;whiteSpace=wrap;html=1;fillColor=#fff2cc;gradientColor=#ffd966;strokeColor=#d6b656;" vertex="1" parent="1">
          <mxGeometry x="490" y="1040" width="40" height="40" as="geometry" />
        </mxCell>
        <mxCell id="LONATQJ_jE18MDj4y4fk-1576" value="" style="rhombus;whiteSpace=wrap;html=1;fillColor=#fff2cc;gradientColor=#ffd966;strokeColor=#d6b656;" vertex="1" parent="1">
          <mxGeometry x="565" y="1040" width="40" height="40" as="geometry" />
        </mxCell>
      </root>
    </mxGraphModel>
  </diagram>
</mxfile>
